<?xml version="1.0" encoding="UTF-8"?>
<svg id="Calque_1" data-name="Calque 1" xmlns="http://www.w3.org/2000/svg" viewBox="0 0 1077.48 1074.67">
  <defs>
    <style>
      .cls-1 {
        fill: #fff;
        fill-rule: evenodd;
      }

      @media (prefers-color-scheme: light) {
        .cls-1 {
          fill: #050505;
        }
      }
    </style>
  </defs>
  <path class="cls-1" d="M215.74,74.22c-70.6,36.84-129.13,87.64-166.53,152.42C15.03,285.86-.22,354.51,0,426.61c-.67,216.78,138.77,464.63,324.18,580.51,66.98,42.44,140,67.56,214.56,67.56s147.59-25.12,214.56-67.56c185.41-115.85,324.87-363.75,324.18-580.51.22-72.09-15.02-140.75-49.21-199.96-37.4-64.78-95.93-115.58-166.53-152.42-186.95-98.96-459.09-98.96-646,0ZM850.1,159.18C607.97,84.38,164.88,114.04,86.94,249.02c-22.36,38.73-22.18,99.15-6.16,169.73,57.98,247.04,303.43,612.05,458.47,612.05,41.18,0,88.74-25.75,137.44-68.18,188.6-167.2,392.59-577.2,313.32-714.5-21.93-37.98-72.76-67.62-139.93-88.95Z"/>
</svg>
