<?xml version="1.0" encoding="UTF-8" standalone="no"?>
<!DOCTYPE svg PUBLIC "-//W3C//DTD SVG 1.1//EN" "http://www.w3.org/Graphics/SVG/1.1/DTD/svg11.dtd">
<svg width="100%" height="100%" viewBox="0 0 1148 130" version="1.1" xmlns="http://www.w3.org/2000/svg" xmlns:xlink="http://www.w3.org/1999/xlink" xml:space="preserve" xmlns:serif="http://www.serif.com/" style="fill-rule:evenodd;clip-rule:evenodd;stroke-linejoin:round;stroke-miterlimit:2;">
    <g id="Plan-de-travail1" serif:id="Plan de travail1" transform="matrix(1,0,0,1,-426.361,-935.251)">
        <rect x="426.361" y="935.251" width="1147.28" height="129.499" style="fill:none;"/>
        <clipPath id="_clip1">
            <rect x="426.361" y="935.251" width="1147.28" height="129.499"/>
        </clipPath>
        <g clip-path="url(#_clip1)">
            <g id="LEVCHIN-BRUT" serif:id="LEVCHIN BRUT" transform="matrix(0.737746,0,0,0.630221,-126.719,-282.992)">
                <g transform="matrix(266.667,0,0,278.934,723.512,2138.52)">
                    <path d="M0.1,-0.737L0.224,-0.737L0.224,-0.048L0.595,-0.048L0.595,-0L0.1,-0L0.1,-0.737Z" style="fill:white;fill-rule:nonzero;"/>
                </g>
                <g transform="matrix(266.667,0,0,278.823,930.025,2138.52)">
                    <path d="M0.566,-0.737L0.566,-0.689L0.224,-0.689L0.224,-0.416L0.484,-0.416L0.484,-0.368L0.224,-0.368L0.224,-0.048L0.595,-0.048L0.595,0L0.1,-0L0.1,-0.737L0.566,-0.737Z" style="fill:white;fill-rule:nonzero;"/>
                </g>
                <g transform="matrix(266.667,0,0,266.667,1172.59,2133.93)">
                    <path d="M0.118,-0.753L0.411,-0.151L0.68,-0.753L0.738,-0.753L0.394,0.017L0.346,0.017L-0.028,-0.753L0.118,-0.753Z" style="fill:white;fill-rule:nonzero;"/>
                </g>
                <g transform="matrix(266.667,0,0,266.667,1409.62,2133.93)">
                    <path d="M0.217,-0.368C0.217,-0.316 0.224,-0.266 0.24,-0.225C0.256,-0.184 0.277,-0.149 0.304,-0.121C0.331,-0.093 0.364,-0.071 0.401,-0.056C0.438,-0.041 0.478,-0.033 0.521,-0.033C0.547,-0.033 0.572,-0.038 0.596,-0.048C0.62,-0.058 0.643,-0.071 0.663,-0.088C0.684,-0.104 0.702,-0.122 0.718,-0.142C0.735,-0.162 0.748,-0.185 0.758,-0.206L0.811,-0.172C0.795,-0.147 0.777,-0.124 0.757,-0.101C0.736,-0.078 0.712,-0.058 0.685,-0.04C0.658,-0.023 0.627,-0.009 0.593,0.002C0.558,0.012 0.52,0.017 0.478,0.017C0.417,0.017 0.361,0.007 0.311,-0.013C0.262,-0.034 0.219,-0.061 0.183,-0.096C0.148,-0.131 0.12,-0.172 0.101,-0.218C0.081,-0.265 0.072,-0.316 0.072,-0.368C0.072,-0.402 0.076,-0.434 0.085,-0.466C0.094,-0.499 0.107,-0.53 0.124,-0.559C0.14,-0.587 0.161,-0.614 0.185,-0.637C0.21,-0.661 0.237,-0.682 0.268,-0.699C0.298,-0.716 0.331,-0.73 0.368,-0.739C0.404,-0.749 0.443,-0.753 0.484,-0.753C0.523,-0.753 0.559,-0.748 0.593,-0.738C0.626,-0.727 0.656,-0.713 0.683,-0.696C0.71,-0.678 0.735,-0.658 0.756,-0.635C0.777,-0.613 0.795,-0.589 0.811,-0.564L0.757,-0.528C0.726,-0.588 0.691,-0.632 0.653,-0.659C0.615,-0.687 0.571,-0.701 0.522,-0.701C0.479,-0.701 0.439,-0.693 0.402,-0.677C0.365,-0.662 0.333,-0.639 0.305,-0.611C0.278,-0.582 0.256,-0.547 0.24,-0.505C0.225,-0.464 0.217,-0.42 0.217,-0.368Z" style="fill:white;fill-rule:nonzero;"/>
                </g>
                <g transform="matrix(266.667,0,0,206.328,1972.64,2135.28)">
                    <rect x="0.1" y="-0.98" width="0.124" height="0.996" style="fill:white;fill-rule:nonzero;"/>
                </g>
                <g transform="matrix(266.667,0,0,266.667,1698.53,2135.91)">
                    <path d="M0.224,-0.35L0.224,0.01L0.1,0.01L0.1,-0.76L0.224,-0.76L0.224,-0.4L0.594,-0.4L0.594,-0.76L0.718,-0.76L0.718,0.01L0.594,0.01L0.594,-0.35L0.224,-0.35Z" style="fill:white;fill-rule:nonzero;"/>
                </g>
                <g transform="matrix(266.667,0,0,272.376,2114.87,2133.77)">
                    <path d="M0.1,-0.737L0.169,-0.737L0.658,-0.209L0.658,-0.737L0.712,-0.737L0.712,0.017L0.683,0.017L0.156,-0.57L0.156,0.017L0.1,0.017L0.1,-0.737Z" style="fill:white;fill-rule:nonzero;"/>
                </g>
            </g>
        </g>
    </g>
</svg>
